<mxfile host="app.diagrams.net" agent="Mozilla/5.0 (Windows NT 10.0; Win64; x64) AppleWebKit/537.36 (KHTML, like Gecko) Chrome/136.0.0.0 Safari/537.36" version="27.0.6">
  <diagram name="PÃ¡gina-1" id="0L5q5pmm4pahp1lATsEM">
    <mxGraphModel dx="1042" dy="570" grid="1" gridSize="10" guides="1" tooltips="1" connect="1" arrows="1" fold="1" page="1" pageScale="1" pageWidth="827" pageHeight="1169" math="0" shadow="0">
      <root>
        <mxCell id="0" />
        <mxCell id="1" parent="0" />
        <mxCell id="fFlUiZoPOSRxJBtYPskF-8" style="edgeStyle=orthogonalEdgeStyle;rounded=0;orthogonalLoop=1;jettySize=auto;html=1;exitX=1;exitY=0.5;exitDx=0;exitDy=0;entryX=0;entryY=0.5;entryDx=0;entryDy=0;" edge="1" parent="1" source="fFlUiZoPOSRxJBtYPskF-1" target="fFlUiZoPOSRxJBtYPskF-3">
          <mxGeometry relative="1" as="geometry" />
        </mxCell>
        <mxCell id="fFlUiZoPOSRxJBtYPskF-1" value=":Usuario" style="html=1;whiteSpace=wrap;" vertex="1" parent="1">
          <mxGeometry y="210" width="110" height="50" as="geometry" />
        </mxCell>
        <mxCell id="fFlUiZoPOSRxJBtYPskF-10" style="edgeStyle=orthogonalEdgeStyle;rounded=0;orthogonalLoop=1;jettySize=auto;html=1;exitX=1;exitY=0.75;exitDx=0;exitDy=0;entryX=0;entryY=0.25;entryDx=0;entryDy=0;" edge="1" parent="1" source="fFlUiZoPOSRxJBtYPskF-3" target="fFlUiZoPOSRxJBtYPskF-6">
          <mxGeometry relative="1" as="geometry" />
        </mxCell>
        <mxCell id="fFlUiZoPOSRxJBtYPskF-13" style="edgeStyle=orthogonalEdgeStyle;rounded=0;orthogonalLoop=1;jettySize=auto;html=1;exitX=1;exitY=0.25;exitDx=0;exitDy=0;entryX=0;entryY=0.5;entryDx=0;entryDy=0;" edge="1" parent="1" source="fFlUiZoPOSRxJBtYPskF-3" target="fFlUiZoPOSRxJBtYPskF-4">
          <mxGeometry relative="1" as="geometry">
            <Array as="points">
              <mxPoint x="310" y="175" />
            </Array>
          </mxGeometry>
        </mxCell>
        <mxCell id="fFlUiZoPOSRxJBtYPskF-16" style="edgeStyle=orthogonalEdgeStyle;rounded=0;orthogonalLoop=1;jettySize=auto;html=1;exitX=1;exitY=1;exitDx=0;exitDy=0;entryX=0;entryY=0.75;entryDx=0;entryDy=0;" edge="1" parent="1" source="fFlUiZoPOSRxJBtYPskF-3" target="fFlUiZoPOSRxJBtYPskF-6">
          <mxGeometry relative="1" as="geometry" />
        </mxCell>
        <mxCell id="fFlUiZoPOSRxJBtYPskF-3" value=":AvaliacaoController" style="html=1;whiteSpace=wrap;" vertex="1" parent="1">
          <mxGeometry x="200" y="210" width="110" height="50" as="geometry" />
        </mxCell>
        <mxCell id="fFlUiZoPOSRxJBtYPskF-11" style="edgeStyle=orthogonalEdgeStyle;rounded=0;orthogonalLoop=1;jettySize=auto;html=1;exitX=1;exitY=0.5;exitDx=0;exitDy=0;entryX=0;entryY=0.5;entryDx=0;entryDy=0;" edge="1" parent="1" source="fFlUiZoPOSRxJBtYPskF-4" target="fFlUiZoPOSRxJBtYPskF-5">
          <mxGeometry relative="1" as="geometry" />
        </mxCell>
        <mxCell id="fFlUiZoPOSRxJBtYPskF-4" value=":AvaliacaoService" style="html=1;whiteSpace=wrap;" vertex="1" parent="1">
          <mxGeometry x="419" y="150" width="110" height="50" as="geometry" />
        </mxCell>
        <mxCell id="fFlUiZoPOSRxJBtYPskF-5" value=":Avaliacao" style="html=1;whiteSpace=wrap;" vertex="1" parent="1">
          <mxGeometry x="640" y="150" width="110" height="50" as="geometry" />
        </mxCell>
        <mxCell id="fFlUiZoPOSRxJBtYPskF-12" style="edgeStyle=orthogonalEdgeStyle;rounded=0;orthogonalLoop=1;jettySize=auto;html=1;exitX=1;exitY=0.75;exitDx=0;exitDy=0;entryX=0;entryY=0.75;entryDx=0;entryDy=0;" edge="1" parent="1" source="fFlUiZoPOSRxJBtYPskF-6" target="fFlUiZoPOSRxJBtYPskF-7">
          <mxGeometry relative="1" as="geometry" />
        </mxCell>
        <mxCell id="fFlUiZoPOSRxJBtYPskF-19" style="edgeStyle=orthogonalEdgeStyle;rounded=0;orthogonalLoop=1;jettySize=auto;html=1;exitX=1;exitY=0.25;exitDx=0;exitDy=0;entryX=0;entryY=0.25;entryDx=0;entryDy=0;" edge="1" parent="1" source="fFlUiZoPOSRxJBtYPskF-6" target="fFlUiZoPOSRxJBtYPskF-7">
          <mxGeometry relative="1" as="geometry" />
        </mxCell>
        <mxCell id="fFlUiZoPOSRxJBtYPskF-6" value=":ContratacaoService" style="html=1;whiteSpace=wrap;" vertex="1" parent="1">
          <mxGeometry x="419" y="270" width="110" height="50" as="geometry" />
        </mxCell>
        <mxCell id="fFlUiZoPOSRxJBtYPskF-7" value=":Contratacao" style="html=1;whiteSpace=wrap;" vertex="1" parent="1">
          <mxGeometry x="640" y="270" width="110" height="50" as="geometry" />
        </mxCell>
        <mxCell id="fFlUiZoPOSRxJBtYPskF-14" value="1: solicitarAvaliacao()" style="text;html=1;align=center;verticalAlign=middle;resizable=0;points=[];autosize=1;strokeColor=none;fillColor=none;" vertex="1" parent="1">
          <mxGeometry x="85" y="260" width="140" height="30" as="geometry" />
        </mxCell>
        <mxCell id="fFlUiZoPOSRxJBtYPskF-15" value="2: verificarContratacao()" style="text;html=1;align=center;verticalAlign=middle;resizable=0;points=[];autosize=1;strokeColor=none;fillColor=none;" vertex="1" parent="1">
          <mxGeometry x="269" y="320" width="150" height="30" as="geometry" />
        </mxCell>
        <mxCell id="fFlUiZoPOSRxJBtYPskF-17" value="3: isConcluida()" style="text;html=1;align=center;verticalAlign=middle;resizable=0;points=[];autosize=1;strokeColor=none;fillColor=none;" vertex="1" parent="1">
          <mxGeometry x="525" y="310" width="110" height="30" as="geometry" />
        </mxCell>
        <mxCell id="fFlUiZoPOSRxJBtYPskF-18" value="4: verificarAvaliacao()" style="text;html=1;align=center;verticalAlign=middle;resizable=0;points=[];autosize=1;strokeColor=none;fillColor=none;" vertex="1" parent="1">
          <mxGeometry x="320" y="220" width="140" height="30" as="geometry" />
        </mxCell>
        <mxCell id="fFlUiZoPOSRxJBtYPskF-20" value="5: isAvaliada()" style="text;html=1;align=center;verticalAlign=middle;resizable=0;points=[];autosize=1;strokeColor=none;fillColor=none;" vertex="1" parent="1">
          <mxGeometry x="535" y="240" width="100" height="30" as="geometry" />
        </mxCell>
        <mxCell id="fFlUiZoPOSRxJBtYPskF-21" value="6: criarAvaliacao()" style="text;html=1;align=center;verticalAlign=middle;resizable=0;points=[];autosize=1;strokeColor=none;fillColor=none;" vertex="1" parent="1">
          <mxGeometry x="284" y="130" width="120" height="30" as="geometry" />
        </mxCell>
        <mxCell id="fFlUiZoPOSRxJBtYPskF-22" value="7: salvar()" style="text;html=1;align=center;verticalAlign=middle;resizable=0;points=[];autosize=1;strokeColor=none;fillColor=none;" vertex="1" parent="1">
          <mxGeometry x="540" y="130" width="80" height="30" as="geometry" />
        </mxCell>
      </root>
    </mxGraphModel>
  </diagram>
</mxfile>
